<?xml version="1.0" encoding="UTF-8"?>
<svg width="80px" height="80px" viewBox="0 0 80 80" version="1.1" xmlns="http://www.w3.org/2000/svg" xmlns:xlink="http://www.w3.org/1999/xlink">
    <title>st-boleto-email</title>
    <defs>
        <linearGradient x1="50%" y1="0%" x2="50%" y2="100%" id="linearGradient-1">
            <stop stop-color="#52C9FF" offset="0%"></stop>
            <stop stop-color="#8DE0FF" offset="100%"></stop>
        </linearGradient>
        <linearGradient x1="-1.11022302e-14%" y1="50%" x2="100%" y2="50%" id="linearGradient-2">
            <stop stop-color="#00B8FF" offset="0%"></stop>
            <stop stop-color="#009DE3" offset="100%"></stop>
        </linearGradient>
        <linearGradient x1="50%" y1="0%" x2="50%" y2="100%" id="linearGradient-3">
            <stop stop-color="#12B4FE" offset="0%"></stop>
            <stop stop-color="#32C8FF" offset="100%"></stop>
        </linearGradient>
        <linearGradient x1="50%" y1="3.061617e-15%" x2="50%" y2="100%" id="linearGradient-4">
            <stop stop-color="#FFD755" offset="0%"></stop>
            <stop stop-color="#FFC500" offset="100%"></stop>
        </linearGradient>
    </defs>
    <g id="st-boleto-email" stroke="none" stroke-width="1" fill="none" fill-rule="evenodd">
        <g id="Icons/009-Copy" fill="#F5F7F9">
            <path d="M4.8952422,18.7751156 C4.03382366,20.392206 3.34216055,22.1040833 2.8475995,23.9071118 C-0.522742481,36.1969468 -1.69271346,53.2411885 3.80266732,65.0082673 C5.48680636,68.6140646 8.01817466,71.7422918 11.2904816,74.0023749 C18.7029637,79.1213866 26.2813314,82.4256837 34.8818435,77.7696995 C40.4538464,74.7536585 43.1513583,69.3373016 47.8898053,65.5092095 C56.8785878,58.2474947 70.969063,60.6646903 77.3555309,49.5850113 C82.0387686,41.4606058 79.8120829,31.0815708 76.0088388,23.0418243 C72.1720564,14.9309227 65.7156741,7.91721193 57.7108539,3.8644879 C55.7700178,2.88182048 53.7448199,2.06847102 51.6608011,1.44729225 C36.0144064,-3.21544388 12.9766845,3.60557685 4.8952422,18.7751156" id="Fill-1-Copy-4" transform="translate(40.000000, 40.000000) rotate(-180.000000) translate(-40.000000, -40.000000) "></path>
        </g>
        <g id="Icons/48x48/acordos" transform="translate(16.000000, 16.000000)">
            <path d="M2.93714532,11.2650694 C2.42029419,12.2353236 2.00529633,13.26245 1.7085597,14.3442671 C-0.313645489,21.7181681 -1.01562808,31.9447131 2.28160039,39.0049604 C3.29208382,41.1684388 4.8109048,43.0453751 6.77428895,44.401425 C11.2217782,47.472832 15.7687988,49.4554102 20.9291061,46.6618197 C24.2723078,44.8521951 25.890815,41.602381 28.7338832,39.3055257 C34.1271527,34.9484968 42.5814378,36.3988142 46.4133185,29.7510068 C49.2232612,24.8763635 47.8872498,18.6489425 45.6053033,13.8250946 C43.3032338,8.95855364 39.4294044,4.75032716 34.6265123,2.31869274 C33.4620107,1.72909229 32.246892,1.24108261 30.9964806,0.868375349 C21.6086438,-1.92926633 7.78601072,2.16334611 2.93714532,11.2650694" id="Fill-1" fill="#F9F0E7" transform="translate(24.000000, 24.000000) rotate(-270.000000) translate(-24.000000, -24.000000) "></path>
            <path d="M0,16 L24,16 L24,24 C24,25.6568542 22.6568542,27 21,27 L3,27 C1.34314575,27 2.02906125e-16,25.6568542 0,24 L0,16 L0,16 Z" id="Rectangle-Copy" fill="#EA9B00" fill-rule="nonzero" transform="translate(12.000000, 21.500000) scale(1, -1) translate(-12.000000, -21.500000) "></path>
            <g id="Group-2" transform="translate(8.000000, 0.000000)">
                <polygon id="Rectangle" fill="url(#linearGradient-1)" points="0 0 24 0 32 8 32 47 0 47"></polygon>
                <path d="M24,0 L32,8 L27,8 C25.3431458,8 24,6.65685425 24,5 L24,0 L24,0 Z" id="Rectangle" fill="url(#linearGradient-2)"></path>
            </g>
            <g id="Group-3" transform="translate(15.000000, 4.000000)">
                <path d="M16.2102375,11.9862 C15.7845375,13.0129875 16.1377875,14.5902375 15.3640125,15.3640125 C14.5900125,16.1377875 13.0131,15.7843125 11.9862,16.210125 C10.99575,16.6208625 10.139175,18 8.9998875,18 C7.860825,18 7.00425,16.6208625 6.0138,16.210125 C4.9869,15.7843125 3.4097625,16.1377875 2.6359875,15.3640125 C1.8622125,14.5900125 2.2156875,13.0129875 1.7897625,11.9862 C1.3791375,10.99575 0,10.13895 0,8.9998875 C0,7.860825 1.3791375,7.0041375 1.7897625,6.0138 C2.2156875,4.9869 1.8622125,3.4097625 2.6359875,2.635875 C3.4097625,1.8620775 4.9869,2.21549625 6.0138,1.78974 C7.00425,1.3789575 7.860825,0 8.9998875,0 C10.139175,0 10.99575,1.3789575 11.9862,1.78974 C13.0131,2.21549625 14.5902375,1.86222375 15.3640125,2.6359875 C16.1377875,3.4097625 15.7845375,4.9869 16.2102375,6.0138 C16.6210875,7.00425 18,7.860825 18,8.9998875 C18,10.13895 16.6210875,10.99575 16.2102375,11.9862 Z" id="Path" fill="url(#linearGradient-3)"></path>
                <g id="Group-2" transform="translate(5.727273, 3.272727)" fill="#FFFFFF">
                    <g id="Group" transform="translate(0.000000, 1.636364)" fill-rule="nonzero">
                        <path d="M5.72727273,0 C6.17914207,0 6.54545455,0.366312477 6.54545455,0.818181818 C6.54545455,1.23777478 6.22960348,1.58359677 5.82269001,1.63085913 L5.72727273,1.63636364 L2.65909091,1.63636364 C2.09425423,1.63636364 1.63636364,2.09425423 1.63636364,2.65909091 C1.63636364,3.18862529 2.03880654,3.6241641 2.55452299,3.67653796 L2.65909091,3.68181818 L3.88636364,3.68181818 C5.35493899,3.68181818 6.54545455,4.87233373 6.54545455,6.34090909 C6.54545455,7.75884392 5.43562792,8.91756485 4.03725592,8.99579063 L3.88636364,9 L0.818181818,9 C0.366312477,9 0,8.63368752 0,8.18181818 C0,7.76222522 0.315851065,7.41640323 0.722764534,7.36914087 L0.818181818,7.36363636 L3.88636364,7.36363636 C4.45120031,7.36363636 4.90909091,6.90574577 4.90909091,6.34090909 C4.90909091,5.81137471 4.506648,5.3758359 3.99093156,5.32346204 L3.88636364,5.31818182 L2.65909091,5.31818182 C1.19051555,5.31818182 0,4.12766627 0,2.65909091 C0,1.24115608 1.10982663,0.0824351508 2.50819862,0.00420937296 L2.65909091,0 L5.72727273,0 Z" id="Path-2"></path>
                    </g>
                    <path d="M3.27272727,0 C3.72459661,-8.30070513e-17 4.09090909,0.366312477 4.09090909,0.818181818 L4.09090909,2.45454545 L4.09090909,2.45454545 L2.45454545,2.45454545 L2.45454545,0.818181818 C2.45454545,0.366312477 2.82085793,8.30070513e-17 3.27272727,0 Z" id="Rectangle"></path>
                    <path d="M3.27272727,9.81818182 C3.72459661,9.81818182 4.09090909,10.1844943 4.09090909,10.6363636 L4.09090909,12.2727273 L4.09090909,12.2727273 L2.45454545,12.2727273 L2.45454545,10.6363636 C2.45454545,10.1844943 2.82085793,9.81818182 3.27272727,9.81818182 Z" id="Rectangle-Copy" transform="translate(3.272727, 11.045455) scale(-1, -1) translate(-3.272727, -11.045455) "></path>
                </g>
            </g>
            <path d="M0,21 L45,21 C46.6568542,21 48,22.3431458 48,24 L48,45 C48,46.6568542 46.6568542,48 45,48 L3,48 C1.34314575,48 2.02906125e-16,46.6568542 0,45 L0,21 L0,21 Z" id="Rectangle" fill="url(#linearGradient-4)"></path>
            <path d="M28.04298,29.9277498 C28.6351674,29.3484351 29.5848576,29.3588705 30.1641723,29.951058 C30.7072798,30.5062337 30.7320522,31.3756208 30.2450799,31.9594661 L30.1408641,32.0722502 L22.9853193,39.0722502 C22.4215362,39.6237781 21.5359485,39.6396009 20.953666,39.133427 L20.8414388,39.0252364 L17.9050615,35.8892251 C17.3388391,35.2845073 17.3700458,34.3352726 17.9747636,33.7690502 C18.5416866,33.2382167 19.4114076,33.2324674 19.984461,33.7320945 L20.0949385,33.8387524 L21.983,35.855 L28.04298,29.9277498 Z" id="Path-2" fill="#F07A01" fill-rule="nonzero"></path>
        </g>
    </g>
</svg>