<?xml version="1.0" encoding="utf-8"?>
<!-- Generator: Adobe Illustrator 25.4.1, SVG Export Plug-In . SVG Version: 6.00 Build 0)  -->
<svg version="1.1" id="Camada_1" xmlns="http://www.w3.org/2000/svg" xmlns:xlink="http://www.w3.org/1999/xlink" x="0px" y="0px"
	 viewBox="0 0 49.29 49.29" style="enable-background:new 0 0 49.29 49.29;" xml:space="preserve">
<style type="text/css">
	.st0{fill:url(#Combined_Shape-22_00000080897040997911937190000004921064749411264907_);}
	.st1{fill:url(#Oval-19_00000005240504611811267920000011573073411007231922_);}
	.st2{fill:#FFFFFF;}
</style>
<linearGradient id="Combined_Shape-22_00000075142360164718679570000010427192271920293780_" gradientUnits="userSpaceOnUse" x1="-729.0421" y1="330.5577" x2="-729.0421" y2="329.5215" gradientTransform="matrix(30.8056 0 0 -32.041 22478.5332 10596.6865)">
	<stop  offset="0" style="stop-color:#019BF3"/>
	<stop  offset="1" style="stop-color:#237EFD"/>
</linearGradient>
<path id="Combined_Shape-22_00000111872413170365354870000005314885947062091691_" style="fill:url(#Combined_Shape-22_00000075142360164718679570000010427192271920293780_);" d="
	M10.31,38.49c-3.48,0-6.29-2.82-6.29-6.3c0-2.63,1.64-4.98,4.1-5.9l5.36-1.99c4.19-1.56,8.8-1.56,12.99,0l5.36,1.99
	c3.26,1.21,4.92,4.84,3.71,8.09c-0.92,2.46-3.27,4.1-5.9,4.1H10.31z M11.68,13.59c0-4.58,3.72-8.3,8.3-8.3s8.3,3.72,8.3,8.3
	s-3.72,8.3-8.3,8.3c0,0,0,0,0,0C15.39,21.89,11.68,18.17,11.68,13.59z"/>
<linearGradient id="Oval-19_00000060016670083227936150000012936658604874551739_" gradientUnits="userSpaceOnUse" x1="-736.6294" y1="330.322" x2="-736.6294" y2="329.5442" gradientTransform="matrix(24 0 0 -24 17715.043 7953.0591)">
	<stop  offset="0" style="stop-color:#09E6A7"/>
	<stop  offset="1" style="stop-color:#05C991"/>
</linearGradient>
<circle id="Oval-19_00000067236081417859099870000010984812126526870188_" style="fill:url(#Oval-19_00000060016670083227936150000012936658604874551739_);" cx="35.94" cy="34.66" r="9.33"/>
<g transform="matrix(1, 0, 0, 1, -800, -89)">
	<path id="Path_11-4_00000013161602181118899580000008455433233841627817_" class="st2" d="M839.28,120.78
		c0.3-0.31,0.79-0.32,1.1-0.02c0.29,0.28,0.32,0.73,0.07,1.05l-0.06,0.07l-4.67,4.67c-0.28,0.28-0.72,0.3-1.03,0.06l-0.07-0.06
		l-2.33-2.33c-0.31-0.3-0.32-0.79-0.02-1.1c0.28-0.29,0.73-0.32,1.05-0.07l0.07,0.06l1.78,1.78L839.28,120.78z"/>
</g>
</svg>
