<?xml version="1.0" encoding="utf-8"?>
<!-- Generator: Adobe Illustrator 25.4.1, SVG Export Plug-In . SVG Version: 6.00 Build 0)  -->
<svg version="1.1" id="Camada_1" xmlns="http://www.w3.org/2000/svg" xmlns:xlink="http://www.w3.org/1999/xlink" x="0px" y="0px"
	 viewBox="0 0 49.29 49.29" style="enable-background:new 0 0 49.29 49.29;" xml:space="preserve">
<style type="text/css">
	.st0{fill:url(#Combined_Shape-5_00000132808992143845088540000015824543609463171456_);}
	.st1{fill:url(#Combined_Shape-6_00000183225936315301307300000015348425271108416385_);}
	.st2{fill:url(#Combined_Shape-7_00000132057721032661470080000003755979435178132399_);}
	.st3{fill:url(#Combined_Shape-8_00000167378455283551995050000009312836655646995593_);}
	.st4{fill:url(#Path_Copy_00000180335257871998466700000017454593697281390240_);}
	.st5{fill:url(#Path_00000145060317252257035370000000564736975944899496_);}
</style>
<g id="Group_15_00000093142473739729503620000010625224000799343488_" transform="translate(3 9)">
	
		<linearGradient id="Combined_Shape-5_00000023994344366590242230000003286918991890959789_" gradientUnits="userSpaceOnUse" x1="-642.9797" y1="316.1976" x2="-642.4097" y2="316.3806" gradientTransform="matrix(9.143 0 0 -16.671 5915.165 5289.7324)">
		<stop  offset="0" style="stop-color:#02AC7C"/>
		<stop  offset="1" style="stop-color:#03DEA0"/>
	</linearGradient>
	
		<path id="Combined_Shape-5_00000023975012007888770980000013297600982050990743_" style="fill:url(#Combined_Shape-5_00000023994344366590242230000003286918991890959789_);" d="
		M39.03,24.79c-1.16,0-2.1-0.94-2.1-2.1c0-0.01,0-0.01,0-0.02l0.01-0.98c0.01-3.33-1.1-6.58-3.14-9.21L38,8.12
		c3.2,3.8,4.95,8.6,4.94,13.57l-0.01,1.02c-0.01,1.15-0.95,2.08-2.1,2.08L39.03,24.79z"/>
	
		<linearGradient id="Combined_Shape-6_00000124139937231607244820000011258082794828667583_" gradientUnits="userSpaceOnUse" x1="-648.0157" y1="309.9991" x2="-648.4496" y2="309.3361" gradientTransform="matrix(13.4 0 0 -11.541 8717.0801 3579.6863)">
		<stop  offset="0" style="stop-color:#2BFFC3"/>
		<stop  offset="1" style="stop-color:#01C88F"/>
	</linearGradient>
	
		<path id="Combined_Shape-6_00000152968328220059399360000008917341189052047792_" style="fill:url(#Combined_Shape-6_00000124139937231607244820000011258082794828667583_);" d="
		M24.6,6.89l0.88-5.95C30.37,1.78,34.81,4.32,38,8.12l-4.2,4.36C31.53,9.54,28.25,7.55,24.6,6.89z"/>
	
		<linearGradient id="Combined_Shape-7_00000142152484868884764950000002086309931248701077_" gradientUnits="userSpaceOnUse" x1="-650.1489" y1="304.8066" x2="-650.1489" y2="303.8066" gradientTransform="matrix(16.1 0 0 -9.294 10484.8213 2833.5225)">
		<stop  offset="0" style="stop-color:#FFBE27"/>
		<stop  offset="1" style="stop-color:#FF5D1C"/>
	</linearGradient>
	
		<path id="Combined_Shape-7_00000124121547852236686530000015582427485670887558_" style="fill:url(#Combined_Shape-7_00000142152484868884764950000002086309931248701077_);" d="
		M9.37,4.83C13,2.11,17.41,0.64,21.94,0.64c1.18,0,2.36,0.1,3.53,0.3l-0.88,5.95c-4.25-0.76-8.62,0.35-12,3.04L9.37,4.83z"/>
	
		<linearGradient id="Combined_Shape-8_00000027565545073038235140000001223723313870632868_" gradientUnits="userSpaceOnUse" x1="-646.8627" y1="318.9334" x2="-646.2127" y2="318.7074" gradientTransform="matrix(11.646 0 0 -19.965 7535.1694 6379.8569)">
		<stop  offset="0" style="stop-color:#FF9811"/>
		<stop  offset="1" style="stop-color:#FF2929"/>
	</linearGradient>
	
		<path id="Combined_Shape-8_00000160172394398969575980000000385720966409974424_" style="fill:url(#Combined_Shape-8_00000027565545073038235140000001223723313870632868_);" d="
		M3.05,24.79c-1.15,0-2.09-0.93-2.1-2.08l-0.01-1.02C0.94,15.05,4.06,8.8,9.37,4.83l3.22,5.11c-3.57,2.85-5.65,7.18-5.65,11.75
		l0.01,0.98c0.01,1.16-0.92,2.11-2.08,2.12c-0.01,0-0.01,0-0.02,0L3.05,24.79z"/>
</g>
<g id="Group-4_00000079445661549103377900000003609611601583122356_" transform="translate(12 21)">
	
		<linearGradient id="Path_Copy_00000034801271219937997400000018379821899498557349_" gradientUnits="userSpaceOnUse" x1="-680.8742" y1="337.9567" x2="-680.8742" y2="336.9567" gradientTransform="matrix(-13.0065 0 0 14 -8837.3359 -4716.7583)">
		<stop  offset="0" style="stop-color:#00BC86"/>
		<stop  offset="1" style="stop-color:#01CC92"/>
	</linearGradient>
	
		<path id="Path_Copy_00000010290761682216113370000005045853505501854399_" style="fill:url(#Path_Copy_00000034801271219937997400000018379821899498557349_);" d="
		M18.44,0.64h0.04c0.14,0,0.28,0.03,0.41,0.07l0.14,0.06l0.11,0.05l0.07,0.04l0.08,0.06l0.09,0.08l5.17,5.21l0.1,0.11
		c0.44,0.56,0.4,1.36-0.1,1.87l-0.11,0.1l-0.11,0.08c-0.55,0.37-1.28,0.29-1.74-0.18l-2.75-2.77v7.81l-0.01,0.14
		c-0.07,0.71-0.67,1.26-1.38,1.26l-0.13-0.01c-0.72-0.07-1.27-0.68-1.26-1.4V5.43L14.31,8.2L14.2,8.3c-0.55,0.45-1.35,0.4-1.85-0.1
		c-0.54-0.55-0.54-1.43,0-1.98l5.16-5.22l0.1-0.09l0.12-0.08l0.13-0.07l0.13-0.05l0.03-0.01C18.16,0.66,18.3,0.64,18.44,0.64z"/>
	
		<linearGradient id="Path_00000093880036533517963760000010759198344209187750_" gradientUnits="userSpaceOnUse" x1="-680.8742" y1="337.9567" x2="-680.8742" y2="336.9567" gradientTransform="matrix(-13.0065 0 0 14 -8848.3359 -4712.7505)">
		<stop  offset="0" style="stop-color:#FF2929"/>
		<stop  offset="1" style="stop-color:#FF8500"/>
	</linearGradient>
	
		<path id="Path_00000083065061588670950230000010413453750076459181_" style="fill:url(#Path_00000093880036533517963760000010759198344209187750_);" d="
		M7.44,18.64h0.04c0.14,0,0.28-0.03,0.41-0.07l0.13-0.06l0.11-0.06l0.07-0.04l0.08-0.06l0.09-0.08l5.17-5.21l0.1-0.11
		c0.44-0.56,0.4-1.36-0.1-1.87l-0.11-0.1l-0.11-0.08c-0.55-0.37-1.28-0.29-1.74,0.18l-2.75,2.77V6.04L8.83,5.9
		C8.76,5.19,8.16,4.65,7.44,4.64L7.32,4.65C6.6,4.72,6.05,5.33,6.06,6.05v7.81l-2.74-2.77l-0.11-0.1c-0.55-0.45-1.35-0.4-1.85,0.1
		c-0.54,0.55-0.54,1.43,0,1.98l5.16,5.21l0.1,0.09l0.13,0.08l0.13,0.07l0.13,0.05l0.03,0.01C7.16,18.62,7.3,18.64,7.44,18.64z"/>
</g>
</svg>
