<?xml version="1.0" encoding="utf-8"?>
<!-- Generator: Adobe Illustrator 16.0.0, SVG Export Plug-In . SVG Version: 6.00 Build 0)  -->
<!DOCTYPE svg PUBLIC "-//W3C//DTD SVG 1.0//EN" "http://www.w3.org/TR/2001/REC-SVG-20010904/DTD/svg10.dtd">
<svg version="1.0" id="Layer_1" xmlns="http://www.w3.org/2000/svg" xmlns:xlink="http://www.w3.org/1999/xlink" x="0px" y="0px"
	 width="704px" height="528px" viewBox="0 0 704 528" enable-background="new 0 0 704 528" xml:space="preserve">
<path fill="#FFFFFF" d="M395.841,494.423c-123.452-58.351-227.409-6.142-325.317-98.028C-38.73,293.861-17.305,36.235,215.509,5.86
	C828.872-74.164,820.867,695.311,395.841,494.423z"/>
<path opacity="0.2459" fill="none" stroke="#4EA802" stroke-width="2.0712" stroke-linecap="round" stroke-dasharray="1.04,6.21" enable-background="new    " d="
	M477.969,50.53l0.338,353.323"/>
<path opacity="0.2459" fill="none" stroke="#FF8F1C" stroke-width="2.0712" stroke-linecap="round" stroke-dasharray="1.04,6.21" enable-background="new    " d="
	M232.292,12.903v389.053"/>
<path opacity="0.2459" fill="none" stroke="#FF8F1C" stroke-width="2.0712" stroke-linecap="round" stroke-dasharray="1.04,6.21" enable-background="new    " d="
	M107.328,97.598l-0.065,232.898"/>
<path opacity="0.2459" fill="none" stroke="#4EA802" stroke-width="2.0712" stroke-linecap="round" stroke-dasharray="1.04,6.21" enable-background="new    " d="
	M601.494,34.737v283.851"/>
<path opacity="0.2459" fill="none" stroke="#000826" stroke-width="2.0712" stroke-linecap="round" stroke-opacity="0.44" stroke-dasharray="1.04,6.21" enable-background="new    " d="
	M353.374,14.888L352.827,396.4"/>
<linearGradient id="SVGID_1_" gradientUnits="userSpaceOnUse" x1="602.2156" y1="326.4578" x2="106.3176" y2="326.4577" gradientTransform="matrix(1 0 0 -1 -0.0151 527.6987)">
	<stop  offset="6.829111e-004" style="stop-color:#12DFA4"/>
	<stop  offset="1" style="stop-color:#FFD223"/>
</linearGradient>
<path opacity="0.2" fill="url(#SVGID_1_)" enable-background="new    " d="M107.329,82.403c45.175,0,75.395,47.295,125.258,47.295
	c49.865,0,86.244-20.563,123.205-47.295s78.03-45.239,121.151-45.239c28.748,0,70.501,0,125.258,0V365.32L556,270.042
	C499.188,196.627,432.796,159.92,356.819,159.92s-138.006,36.707-186.088,110.122l-56.944,94.41l-7.483-5.13
	C106.935,174.709,107.278,82.403,107.329,82.403z"/>
<path opacity="0.78" fill="#FFFFFF" enable-background="new    " d="M396.684,285.203c-24.802-24.8-64.948-24.863-89.672-0.14
	c-24.724,24.723-24.66,64.871,0.141,89.671c24.8,24.801,64.948,24.864,89.671,0.141
	C421.548,350.151,421.484,310.005,396.684,285.203z"/>
<path fill="#D4DAE0" d="M570.553,414.858c25.31,0,45.828-2.693,45.828-6.016s-20.519-6.017-45.828-6.017
	c-25.311,0-45.828,2.694-45.828,6.017S545.243,414.858,570.553,414.858z"/>
<path fill="#D4DAE0" d="M140.164,414.858c25.312,0,45.829-2.693,45.829-6.016s-20.518-6.017-45.829-6.017
	c-25.31,0-45.828,2.694-45.828,6.017S114.854,414.858,140.164,414.858z"/>
<linearGradient id="SVGID_2_" gradientUnits="userSpaceOnUse" x1="543.4441" y1="204.7864" x2="573.0431" y2="222.2084" gradientTransform="matrix(1 0 0 -1 -0.0151 527.6987)">
	<stop  offset="2.111490e-004" style="stop-color:#02AC7C"/>
	<stop  offset="1" style="stop-color:#03DEA0"/>
</linearGradient>
<path fill="url(#SVGID_2_)" d="M605.65,372.931c0,0.129,0,0.28,0,0.453l-0.002,0.588c-0.005,1.091-0.014,2.741-0.029,4.95
	c-0.116,17.227-14.114,31.13-31.342,31.13h-8.662c-17.31,0-31.342-14.032-31.342-31.342c0-0.099,0-0.195,0.001-0.293
	c0.026-2.806,0.039-4.634,0.039-5.486c0-41.523-13.947-79.761-37.374-110.204l49.907-52.156
	C583.536,254.412,605.65,311.066,605.65,372.931z"/>
<linearGradient id="SVGID_3_" gradientUnits="userSpaceOnUse" x1="492.0935" y1="386.1443" x2="433.8709" y2="309.0005" gradientTransform="matrix(1 0 0 -1 -0.0151 527.6987)">
	<stop  offset="0" style="stop-color:#2BFFC3"/>
	<stop  offset="1" style="stop-color:#01C88F"/>
</linearGradient>
<path fill="url(#SVGID_3_)" d="M546.847,210.571l-49.907,52.156c-26.502-34.442-65.136-58.911-109.435-66.883l10.483-71.209
	C457.367,134.784,509.612,166.079,546.847,210.571z"/>
<linearGradient id="SVGID_4_" gradientUnits="userSpaceOnUse" x1="302.2698" y1="406.615" x2="302.2698" y2="295.4089" gradientTransform="matrix(1 0 0 -1 -0.0151 527.6987)">
	<stop  offset="0" style="stop-color:#FFBE27"/>
	<stop  offset="1" style="stop-color:#FF5D1C"/>
</linearGradient>
<path fill="url(#SVGID_4_)" d="M355.972,121.084c14.318,0,28.356,1.216,42.017,3.552l-10.485,71.208
	c-10.234-1.843-20.771-2.804-31.531-2.804c-42.06,0-80.718,14.687-111.21,39.25l-38.242-61.124
	C248.188,139.713,299.923,121.084,355.972,121.084z"/>
<linearGradient id="SVGID_5_" gradientUnits="userSpaceOnUse" x1="145.9832" y1="250.1428" x2="192.0343" y2="222.5458" gradientTransform="matrix(1 0 0 -1 -0.0151 527.6987)">
	<stop  offset="0" style="stop-color:#FF9811"/>
	<stop  offset="1" style="stop-color:#FF2929"/>
</linearGradient>
<path fill="url(#SVGID_5_)" d="M206.518,171.167l38.24,61.125c-40.916,32.963-67.13,83.714-67.13,140.64v0.214l0.002,0.532
	c0.006,1.003,0.018,2.583,0.037,4.74c0.162,17.309-13.738,31.472-31.048,31.633l-0.146,0.001l-8.81,0.001
	c-17.227,0-31.225-13.903-31.342-31.13c-0.016-2.431-0.026-4.185-0.03-5.262l-0.001-0.729
	C106.292,290.376,145.672,217.098,206.518,171.167z"/>
<path fill="#16DFA2" stroke="#FFFFFF" stroke-width="2.0712" d="M602.199,51.045c7.654,0,13.858-6.214,13.858-13.881
	c0-7.666-6.204-13.881-13.858-13.881c-7.652,0-13.856,6.215-13.856,13.881C588.343,44.831,594.547,51.045,602.199,51.045z"/>
<path fill="none" stroke="#000826" stroke-width="4.1425" stroke-opacity="0.053" d="M602.201,58.753
	c11.911,0,21.567-9.666,21.567-21.589c0-11.924-9.656-21.59-21.567-21.59s-21.565,9.666-21.565,21.59
	C580.635,49.087,590.29,58.753,602.201,58.753z"/>
<linearGradient id="SVGID_6_" gradientUnits="userSpaceOnUse" x1="600.322" y1="444.2703" x2="107.3425" y2="444.2702" gradientTransform="matrix(1 0 0 -1 -0.0151 527.6987)">
	<stop  offset="0" style="stop-color:#12DFA4"/>
	<stop  offset="1" style="stop-color:#FFD223"/>
</linearGradient>
<path fill="none" stroke="url(#SVGID_6_)" stroke-width="1.5534" d="M107.328,82.402c45.175,0,75.395,47.295,125.258,47.295
	c49.864,0,86.243-20.563,123.205-47.295c36.961-26.732,78.029-45.239,121.151-45.239c28.748,0,70.5,0,125.258,0"/>
<path fill="#FFFFFF" stroke="#42DD8B" stroke-width="2.0712" d="M478.996,46.931c5.386,0,9.751-4.374,9.751-9.769
	s-4.365-9.769-9.751-9.769c-5.385,0-9.751,4.374-9.751,9.769S473.611,46.931,478.996,46.931z"/>
<path fill="#FFFFFF" stroke="#8DD861" stroke-width="2.0712" d="M353.738,92.171c5.385,0,9.751-4.374,9.751-9.769
	s-4.366-9.769-9.751-9.769s-9.751,4.374-9.751,9.769S348.353,92.171,353.738,92.171z"/>
<path fill="#FFFFFF" stroke="#CED53F" stroke-width="2.0712" d="M230.533,139.466c5.385,0,9.751-4.372,9.751-9.768
	c0-5.395-4.366-9.768-9.751-9.768s-9.751,4.373-9.751,9.768C220.782,135.094,225.148,139.466,230.533,139.466z"/>
<path fill="#FFFFFF" stroke="#F9D227" stroke-width="2.0712" d="M107.329,92.171c5.385,0,9.751-4.374,9.751-9.769
	s-4.366-9.769-9.751-9.769s-9.751,4.374-9.751,9.769S101.944,92.171,107.329,92.171z"/>
<linearGradient id="SVGID_7_" gradientUnits="userSpaceOnUse" x1="341.5774" y1="282.2742" x2="341.5774" y2="87.5916" gradientTransform="matrix(1 0 0 -1 -0.0151 527.6987)">
	<stop  offset="0" style="stop-color:#019BF3"/>
	<stop  offset="1" style="stop-color:#237EFD"/>
</linearGradient>
<path fill="url(#SVGID_7_)" d="M411.605,270.281c33.068,33.068,33.152,86.599,0.188,119.563
	c-29.594,29.593-75.761,32.552-108.818,8.923l-38.656,38.655c-3.803,3.804-10.238,3.535-14.371-0.598
	c-3.89-3.891-4.356-9.818-1.226-13.674l0.629-0.698l38.048-38.046c-28.157-33.261-26.626-83.04,4.645-114.312
	C325.008,237.129,378.538,237.213,411.605,270.281z M396.684,285.203c-24.802-24.801-64.949-24.864-89.672-0.14
	c-24.724,24.723-24.66,64.87,0.14,89.671c24.801,24.801,64.949,24.864,89.672,0.14C421.548,350.151,421.484,310.005,396.684,285.203
	z"/>
<linearGradient id="SVGID_8_" gradientUnits="userSpaceOnUse" x1="373.4753" y1="175.9949" x2="373.4753" y2="228.6814" gradientTransform="matrix(1 0 0 -1 -0.0151 527.6987)">
	<stop  offset="0" style="stop-color:#02B582"/>
	<stop  offset="1" style="stop-color:#01CC92"/>
</linearGradient>
<path fill="url(#SVGID_8_)" d="M373.464,299.017l0.14,0.002c0.544,0.017,1.052,0.11,1.537,0.276l0.504,0.202l0.399,0.207
	l0.267,0.164l0.313,0.223l0.352,0.296l19.426,19.62l0.368,0.417c1.674,2.17,1.5,5.162-0.368,7.05l-0.413,0.372l-0.412,0.296
	c-2.101,1.367-4.813,1.102-6.564-0.668l-10.317-10.437l-0.005,29.387l-0.027,0.519c-0.312,2.744-2.539,4.761-5.198,4.761
	l-0.475-0.021c-2.663-0.242-4.75-2.504-4.75-5.258l0.004-29.387l-10.326,10.437l-0.413,0.372c-2.146,1.69-5.107,1.516-6.976-0.372
	c-2.041-2.063-2.041-5.405,0-7.467l19.428-19.622l0.394-0.327l0.457-0.307l0.489-0.26l0.474-0.189
	c0.029-0.01,0.064-0.022,0.118-0.04C372.396,299.1,372.926,299.017,373.464,299.017z"/>
<linearGradient id="SVGID_9_" gradientUnits="userSpaceOnUse" x1="335.0793" y1="160.9412" x2="335.0793" y2="213.6287" gradientTransform="matrix(1 0 0 -1 -0.0151 527.6987)">
	<stop  offset="0" style="stop-color:#FF5D1C"/>
	<stop  offset="1" style="stop-color:#FF8420"/>
</linearGradient>
<path fill="url(#SVGID_9_)" d="M335.07,366.758l0.139-0.002c0.543-0.017,1.053-0.11,1.536-0.276l0.505-0.202l0.4-0.207l0.266-0.164
	l0.313-0.223l0.351-0.295l19.426-19.62l0.369-0.418c1.673-2.169,1.499-5.161-0.369-7.049l-0.413-0.373l-0.411-0.295
	c-2.102-1.367-4.813-1.103-6.564,0.668L340.3,348.736l-0.005-29.386l-0.026-0.52c-0.313-2.743-2.539-4.761-5.198-4.761l-0.476,0.022
	c-2.663,0.243-4.749,2.504-4.749,5.258l0.004,29.386l-10.326-10.435l-0.413-0.373c-2.147-1.691-5.109-1.516-6.978,0.373
	c-2.04,2.062-2.04,5.404,0,7.467l19.429,19.622l0.394,0.327l0.456,0.307l0.49,0.258l0.474,0.191c0.029,0.01,0.065,0.021,0.118,0.039
	C334.002,366.675,334.531,366.758,335.07,366.758z"/>
</svg>
