<svg xmlns="http://www.w3.org/2000/svg" xmlns:xlink="http://www.w3.org/1999/xlink" width="280" height="240" viewBox="0 0 280 240">
    <defs>
        <rect id="b" width="272" height="218" rx="4"/>
        <filter id="a" width="109.2%" height="111.5%" x="-4.6%" y="-5.3%" filterUnits="objectBoundingBox">
            <feOffset dy="1" in="SourceAlpha" result="shadowOffsetOuter1"/>
            <feGaussianBlur in="shadowOffsetOuter1" result="shadowBlurOuter1" stdDeviation="4"/>
            <feComposite in="shadowBlurOuter1" in2="SourceAlpha" operator="out" result="shadowBlurOuter1"/>
            <feColorMatrix in="shadowBlurOuter1" values="0 0 0 0 0 0 0 0 0 0 0 0 0 0 0 0 0 0 0.04 0"/>
        </filter>
    </defs>
    <g fill="none" fill-rule="evenodd">
        <g transform="translate(4 11)">
            <use fill="#000" filter="url(#a)" xlink:href="#b"/>
            <rect width="271" height="217" x=".5" y=".5" fill="#FFF" stroke="#ECECEC" stroke-linejoin="square" rx="4"/>
            <rect width="133" height="6" x="70" y="135" fill="#C4CFDC" rx="3"/>
            <rect width="195" height="6" x="39" y="149" fill="#E2E9F2" rx="3"/>
            <rect width="78" height="6" x="98" y="172" fill="#BA2F7D" fill-rule="nonzero" rx="3"/>
        </g>
        <path fill="#F86248" d="M98.033 73.842c-12.698 10.794-21.131 26.474-22.4 44.146-.148 2.079-1.894 3.678-3.973 3.678a4 4 0 0 1-3.985-4.289C69.11 97.519 78.583 79.892 92.85 67.759a3.992 3.992 0 0 1 5.82.698 3.994 3.994 0 0 1-.636 5.385"/>
        <path fill="#E2E9F2" d="M206.97 121.667c-2.08 0-3.825-1.6-3.974-3.678-1.273-17.734-9.762-33.47-22.537-44.262a3.994 3.994 0 0 1-.645-5.392 3.992 3.992 0 0 1 5.812-.705c14.352 12.136 23.89 29.814 25.327 49.747a4 4 0 0 1-3.984 4.29"/>
        <path fill="#F8C219" d="M178.2 67.159l-.005.006a3.973 3.973 0 0 1-5.311 1.054c-9.752-6.055-21.254-9.552-33.57-9.552-12.384 0-23.942 3.536-33.725 9.645a3.972 3.972 0 0 1-5.32-1.05l-.001-.001a4.012 4.012 0 0 1 1.125-5.754c11.007-6.872 24-10.84 37.922-10.84 13.85 0 26.78 3.93 37.75 10.731a4.012 4.012 0 0 1 1.135 5.76"/>
        <g fill="#73D66B">
            <path d="M186.116 68.095c-1.803-1.555-4.188-1.901-5.87-.215-1.684 1.686-1.388 3.896-.244 5.508a64.16 64.16 0 0 1 8.068 8.016 3.973 3.973 0 0 0 5.37.654c1.883-1.36 2.22-4.045.722-5.822a72.116 72.116 0 0 0-8.046-8.14z"/>
        </g>
        <path fill="#000" fill-rule="nonzero" d="M127.672 87.66c0 1.38-.342 2.598-1.026 3.653-.683 1.054-1.624 1.9-2.822 2.539 1.354.664 2.429 1.572 3.223 2.724.794 1.153 1.191 2.516 1.191 4.092 0 2.539-.875 4.544-2.627 6.016-1.751 1.471-4.163 2.207-7.236 2.207-3.086 0-5.52-.74-7.305-2.217-1.784-1.478-2.675-3.48-2.675-6.006 0-1.523.39-2.871 1.171-4.043.782-1.172 1.888-2.096 3.32-2.773-1.21-.638-2.16-1.485-2.85-2.54-.691-1.054-1.036-2.272-1.036-3.652 0-2.474.84-4.427 2.52-5.86 1.68-1.432 3.945-2.148 6.796-2.148 2.878 0 5.157.716 6.836 2.149 1.68 1.432 2.52 3.385 2.52 5.86zm-6.035 12.48c0-1.171-.303-2.073-.908-2.704-.606-.632-1.403-.948-2.393-.948-.99 0-1.79.316-2.402.948-.612.631-.918 1.533-.918 2.705 0 1.132.309 2.028.927 2.685.619.658 1.43.986 2.432.986.977 0 1.764-.325 2.363-.976.6-.651.899-1.55.899-2.695zm-3.32-15.41c-.886 0-1.56.29-2.022.87-.462.579-.693 1.383-.693 2.412 0 1.015.234 1.836.703 2.46.468.626 1.159.938 2.07.938.898 0 1.572-.312 2.021-.937.45-.625.674-1.446.674-2.461 0-1.016-.23-1.817-.693-2.403-.462-.586-1.15-.879-2.06-.879zm33.085 12.149c0 3.841-.862 6.803-2.588 8.887-1.725 2.083-4.156 3.125-7.294 3.125-3.165 0-5.612-1.049-7.344-3.145-1.732-2.096-2.598-5.052-2.598-8.867v-5.195c0-3.842.863-6.804 2.588-8.887s4.163-3.125 7.314-3.125c3.152 0 5.593 1.048 7.325 3.144 1.731 2.097 2.597 5.059 2.597 8.887v5.176zm-6.582-6.035c0-2.045-.267-3.571-.8-4.58-.534-1.01-1.38-1.514-2.54-1.514-1.132 0-1.956.469-2.47 1.406-.515.938-.791 2.357-.83 4.258v7.266c0 2.122.267 3.675.8 4.658.534.983 1.38 1.475 2.54 1.475 1.12 0 1.946-.479 2.48-1.436s.807-2.458.82-4.502v-7.031zm29.746 6.035c0 3.841-.862 6.803-2.587 8.887-1.726 2.083-4.157 3.125-7.295 3.125-3.164 0-5.612-1.049-7.344-3.145-1.732-2.096-2.598-5.052-2.598-8.867v-5.195c0-3.842.863-6.804 2.588-8.887s4.163-3.125 7.315-3.125c3.15 0 5.592 1.048 7.324 3.144 1.732 2.097 2.597 5.059 2.597 8.887v5.176zm-6.582-6.035c0-2.045-.267-3.571-.8-4.58-.534-1.01-1.38-1.514-2.54-1.514-1.132 0-1.956.469-2.47 1.406-.514.938-.791 2.357-.83 4.258v7.266c0 2.122.267 3.675.8 4.658.534.983 1.38 1.475 2.54 1.475 1.12 0 1.946-.479 2.48-1.436s.807-2.458.82-4.502v-7.031z" opacity=".8"/>
        <rect width="38" height="6" x="121" y="117" fill="#C4CFDC" rx="3"/>
    </g>
</svg>
