<svg xmlns="http://www.w3.org/2000/svg" xmlns:xlink="http://www.w3.org/1999/xlink" width="470" height="268" viewBox="0 0 470 268">
    <defs>
        <linearGradient id="lccumpvibf" x1="50%" x2="50%" y1="0%" y2="100%">
            <stop offset="0%" stop-color="#FFC1E4"/>
            <stop offset="100%" stop-color="#FF8CD7"/>
        </linearGradient>
        <linearGradient id="t56zhtvtgg" x1="50%" x2="50%" y1="0%" y2="100%">
            <stop offset="0%" stop-color="#FF8CD7"/>
            <stop offset="100%" stop-color="#FFC1E4"/>
        </linearGradient>
        <linearGradient id="4vqmdn4mhh" x1="-13.565%" x2="83.845%" y1="48.193%" y2="51.295%">
            <stop offset="0%" stop-color="#FF8CD7"/>
            <stop offset="100%" stop-color="#FFC1E4"/>
        </linearGradient>
        <linearGradient id="ccm41tw35i" x1="42.974%" x2="60.114%" y1="56.595%" y2="38.319%">
            <stop offset=".021%" stop-color="#02AC7C"/>
            <stop offset="100%" stop-color="#03DEA0"/>
        </linearGradient>
        <linearGradient id="6ndiz0q5tj" x1="81.249%" x2="37.823%" y1="26.165%" y2="75.393%">
            <stop offset="0%" stop-color="#2BFFC3"/>
            <stop offset="100%" stop-color="#01C88F"/>
        </linearGradient>
        <linearGradient id="wtfv24q58k" x1="50%" x2="50%" y1="0%" y2="100%">
            <stop offset="0%" stop-color="#FFBE27"/>
            <stop offset="100%" stop-color="#FF5D1C"/>
        </linearGradient>
        <linearGradient id="b1r1b6jtzl" x1="35.463%" x2="57.595%" y1="37.769%" y2="60.358%">
            <stop offset="0%" stop-color="#FF9811"/>
            <stop offset="100%" stop-color="#FF2929"/>
        </linearGradient>
        <linearGradient id="w55wpn4q7m" x1="50%" x2="50%" y1="0%" y2="100%">
            <stop offset="0%" stop-color="#FFD755"/>
            <stop offset="100%" stop-color="#FA0"/>
        </linearGradient>
        <linearGradient id="q75g8s638n" x1="50%" x2="50%" y1="0%" y2="100%">
            <stop offset="0%" stop-color="#FFD755"/>
            <stop offset="100%" stop-color="#FA0"/>
        </linearGradient>
        <linearGradient id="0clfm22wep" x1="93.663%" x2="39.341%" y1="77.346%" y2="77.346%">
            <stop offset="0%" stop-color="#0796F5"/>
            <stop offset="100%" stop-color="#8CE0FF" stop-opacity="0"/>
        </linearGradient>
        <linearGradient id="etssu52ppr" x1="27.775%" x2="50%" y1="0%" y2="100%">
            <stop offset="0%" stop-color="#019BF3"/>
            <stop offset="100%" stop-color="#237EFD"/>
        </linearGradient>
        <linearGradient id="6wf7wg97qy" x1="50%" x2="50%" y1="0%" y2="100%">
            <stop offset="0%" stop-color="#019BF3"/>
            <stop offset="100%" stop-color="#237EFD"/>
        </linearGradient>
        <linearGradient id="a21oyjgqlz" x1="125.302%" x2="0%" y1="138.143%" y2="-23.008%">
            <stop offset="0%" stop-color="#00AFFF"/>
            <stop offset="100%" stop-color="#E7F8FF"/>
        </linearGradient>
        <linearGradient id="nxzik9ayhA" x1="71.993%" x2="0%" y1="20.679%" y2="130.456%">
            <stop offset="0%" stop-color="#FFBE27"/>
            <stop offset="100%" stop-color="#FF5D1C"/>
        </linearGradient>
        <filter id="0fns2ic0sc">
            <feColorMatrix in="SourceGraphic" values="0 0 0 0 0.121569 0 0 0 0 0.207843 0 0 0 0 0.411765 0 0 0 1.000000 0"/>
        </filter>
        <filter id="q664rxjoko" width="195%" height="276.5%" x="-47.5%" y="-88.2%" filterUnits="objectBoundingBox">
            <feGaussianBlur in="SourceGraphic" stdDeviation="9.9"/>
        </filter>
        <filter id="qqv01o6bvq" width="100%" height="100%" x="0%" y="0%" filterUnits="objectBoundingBox">
            <feGaussianBlur in="SourceGraphic"/>
        </filter>
        <filter id="cxkejbjf6t" width="153.9%" height="135.9%" x="-26.9%" y="-18%" filterUnits="objectBoundingBox">
            <feGaussianBlur in="SourceAlpha" result="shadowBlurInner1" stdDeviation="3"/>
            <feOffset dy="6" in="shadowBlurInner1" result="shadowOffsetInner1"/>
            <feComposite in="shadowOffsetInner1" in2="SourceAlpha" k2="-1" k3="1" operator="arithmetic" result="shadowInnerInner1"/>
            <feColorMatrix in="shadowInnerInner1" values="0 0 0 0 0.288567073 0 0 0 0 0.815554426 0 0 0 0 1 0 0 0 0.191324301 0"/>
        </filter>
        <filter id="t4xxsx9llx" width="121.5%" height="112%" x="-10.8%" y="-6%" filterUnits="objectBoundingBox">
            <feGaussianBlur in="SourceAlpha" result="shadowBlurInner1" stdDeviation="3"/>
            <feOffset dx="2" in="shadowBlurInner1" result="shadowOffsetInner1"/>
            <feComposite in="shadowOffsetInner1" in2="SourceAlpha" k2="-1" k3="1" operator="arithmetic" result="shadowInnerInner1"/>
            <feColorMatrix in="shadowInnerInner1" result="shadowMatrixInner1" values="0 0 0 0 0 0 0 0 0 0.515151515 0 0 0 0 1 0 0 0 0.408435315 0"/>
            <feGaussianBlur in="SourceAlpha" result="shadowBlurInner2" stdDeviation="3.5"/>
            <feOffset dx="-1" dy="1" in="shadowBlurInner2" result="shadowOffsetInner2"/>
            <feComposite in="shadowOffsetInner2" in2="SourceAlpha" k2="-1" k3="1" operator="arithmetic" result="shadowInnerInner2"/>
            <feColorMatrix in="shadowInnerInner2" result="shadowMatrixInner2" values="0 0 0 0 0.0191692073 0 0 0 0 0.889399325 0 0 0 0 1 0 0 0 0.289335664 0"/>
            <feMerge>
                <feMergeNode in="shadowMatrixInner1"/>
                <feMergeNode in="shadowMatrixInner2"/>
            </feMerge>
        </filter>
        <path id="ct2t9w4t3a" d="M0 0H470V268H0z"/>
        <path id="130ul3iwwd" d="M0.353 0.422L140.572 0.422 140.572 96.593 0.353 96.593z"/>
        <path id="7rqegw4rbs" d="M50.021 43.126h14.803v29.703L42.549 76.54l-.001-25.94c0-4.13 3.346-7.476 7.474-7.476z"/>
        <path id="4rm0bos23w" d="M50.54 3.396c10.035 0 18.21 12.74 18.554 28.661l.012 1.043-3.375 33.762c-.191 1.911-1.8 3.366-3.72 3.366H39.075c-1.92 0-3.528-1.456-3.72-3.366l-3.377-33.763c0-16.405 8.31-29.703 18.563-29.703z"/>
        <radialGradient id="0letghbxxu" cx="29.031%" cy="0%" r="155.473%" fx="29.031%" fy="0%" gradientTransform="scale(1 .66669) rotate(74.747 .29 0)">
            <stop offset="0%" stop-color="#019BF3"/>
            <stop offset="100%" stop-color="#237EFD"/>
        </radialGradient>
        <radialGradient id="9qpw1o0suv" cx="134.904%" cy="50%" r="389.889%" fx="134.904%" fy="50%" gradientTransform="matrix(.42858 .50194 -.43441 .11448 .988 -.234)">
            <stop offset="0%" stop-color="#FFF"/>
            <stop offset="47.366%" stop-color="#FFF"/>
            <stop offset="100%" stop-color="#FFF"/>
        </radialGradient>
    </defs>
    <g fill="none" fill-rule="evenodd">
        <mask id="qge0j7jshb" fill="#fff">
            <use xlink:href="#ct2t9w4t3a"/>
        </mask>
        <g mask="url(#qge0j7jshb)">
            <g>
                <g>
                    <path fill="#00C099" d="M150.81 238.417c3.953-11.475 31.724.102 39.068 23.514 7.343 23.41 10.926 71.836 10.926 71.836h-5.532s-5.153-64.747-16.478-72.05c-11.326-7.304-32.107-11.328-27.984-23.3" transform="translate(40.287 1.628) matrix(-1 0 0 1 300.683 .623)"/>
                    <g filter="url(#0fns2ic0sc)" transform="translate(40.287 1.628) matrix(-1 0 0 1 300.683 .623)">
                        <g transform="matrix(-1 0 0 1 229.064 237.174)">
                            <mask id="2jislj77fe" fill="#fff">
                                <use xlink:href="#130ul3iwwd"/>
                            </mask>
                            <path fill="#E63888" d="M35.875.422C15.61 31.848 1.805 50.099.353 96.593h140.219s-.727-53.848-21.796-94.53L35.876.421z" mask="url(#2jislj77fe)"/>
                        </g>
                    </g>
                    <path fill="#D0327B" d="M181.968 240.502c-7.427 13.238-15.5 20.342-30.354 20.019-14.854-.323-47.146-7.103-47.146-7.103l2.907-9.687 74.593-3.23z" transform="translate(40.287 1.628) matrix(-1 0 0 1 300.683 .623)"/>
                    <path fill="url(#lccumpvibf)" d="M61.59 155.742c-8.171 15.833-36.57 65.386-40.445 84.517-3.875 19.132-.242 19.132-.242 19.132s20.586 5.57 37.055-39.474c16.468-45.043 27.044-59.977 27.529-69.18.484-9.201-7.263-30.005-9.688-27.445-2.906 3.067 3.068 14.53 3.068 14.53s-5.006-17.275-10.011-16.145c-5.005 1.13 3.068 9.526 4.682 19.697 0 0-3.551-14.53-7.75-13.239-4.197 1.292 1.292 8.072.97 13.723-.324 5.65-2.584 8.88-5.167 13.884" transform="translate(40.287 1.628) matrix(-1 0 0 1 300.683 .623) matrix(-1 0 0 1 104.866 0)"/>
                    <path fill="#620046" d="M87.031 38.371c-8.719-9.364-1.191-26.511 4.434-29.474 4.195-2.21 9.885-.255 12.243-3.531 4.546-6.319 17.156-7.634 23.624-.813 8.331 8.785 14.69 6.666 22.703 2.85 8.609-4.1 14.994-9.423 31.227-.084 16.234 9.34 22.086 9.15 28.34 2.083 6.256-7.068 24.577-8.013 35.558 7.602 10.98 15.616 12.746 25.383 24.008 25.299 11.263-.085 23.384-2.137 28.816 10.287 5.433 12.424-8.315 27.761-19.74 23.376-11.426-4.385-10.65 11.377-10.559 20.727.09 9.35-12.994 18.78-25.666 8.481-12.673-10.299-17.415-7.284-24.872-1.455-7.457 5.829-19.704.971-24.096-5.658-4.391-6.628-10.4-12.82-20.934-10.675-10.533 2.144-14.598 4.455-23.161-3.48-8.563-7.934-11.124-7.129-17.978-6.149-6.854.98-16.797-7.567-16.797-7.567L87.03 38.371z" transform="translate(40.287 1.628) matrix(-1 0 0 1 300.683 .623)"/>
                    <path fill="#4D0037" d="M104.45 52.63l2.478-9.13 30.983 10.167c18.9-1.16 21.516 2.533 31.18 9.187 9.666 6.654 12.84-6.47 25.425-6.158 12.584.311 11.102 11.127 21.52 14.569 10.42 3.44 11.08-7.848 23.923-2.282 12.128 5.255 10.234 15.117 27.7 21.17-.042 2.3.007 4.563.027 6.54.09 9.35-12.995 18.78-25.667 8.481-12.673-10.299-17.415-7.284-24.872-1.455-7.457 5.829-19.705.971-24.096-5.657-4.39-6.629-10.4-12.821-20.934-10.677-10.533 2.145-14.598 4.456-23.161-3.478-8.563-7.935-10.534-7.52-17.388-6.54-6.854.98-17.077-5.813-17.077-5.813L104.449 52.63z" transform="translate(40.287 1.628) matrix(-1 0 0 1 300.683 .623)"/>
                    <path fill="#FF989B" d="M120.3 53.465c1.023 6.333 6.987 10.637 13.32 9.615 6.334-1.023 10.639-6.987 9.615-13.32-1.023-6.333-6.986-10.637-13.32-9.614-6.333 1.023-10.638 6.986-9.615 13.32" transform="translate(40.287 1.628) matrix(-1 0 0 1 300.683 .623)"/>
                    <path fill="#CC361B" d="M125.725 52.589c.539 3.337 3.682 5.605 7.02 5.066 3.336-.539 5.606-3.681 5.066-7.018-.54-3.338-3.682-5.606-7.02-5.067-3.337.539-5.606 3.682-5.066 7.019" transform="translate(40.287 1.628) matrix(-1 0 0 1 300.683 .623)"/>
                    <path fill="url(#t56zhtvtgg)" d="M140.63 155.216c11.438 2.38 21.594 5.918 27.56 8.216 2.32-5.55 2.884-11.265 3.888-17.255.558-3.335-4.621-15.378-11.281-20.827-2.177-1.78-5.77-4.804-5.82-8.896-.1-7.99 3.884-50.282 3.884-50.282l-33.073-7.185s-3.167 41.93-5.722 48.307c-2.338 5.836-15.335 12.85-28.05 16.967 4.763 10.653 5.744 16.983 2.038 28.073 15.505-6.896 32.022-.148 46.577 2.882" transform="translate(40.287 1.628) matrix(-1 0 0 1 300.683 .623) matrix(-1 0 0 1 264.135 0)"/>
                    <path fill="#ED67CA" d="M121.706 89.134c-2.847 1.288-11.367 3.359-14.116 2.948-1.428-13.242-2.316-25.91-2.316-25.91l26.9-5.804c2.105 13.255-2.083 24.974-10.468 28.766" transform="translate(40.287 1.628) matrix(-1 0 0 1 300.683 .623)"/>
                    <path fill="#FFC4E6" d="M88.713 58.378c2.611 16.162 10.999 28.3 24.954 26.045 11.88-1.918 20.164-16.618 18.365-32.89-1.796-16.245-10.033-28.514-26.538-25.892-23.706 3.765-19.391 16.575-16.78 32.737" transform="translate(40.287 1.628) matrix(-1 0 0 1 300.683 .623)"/>
                    <path fill="#000" d="M110.349 49.276c.138.855.942 1.435 1.796 1.297.855-.138 1.435-.942 1.297-1.796-.139-.854-.942-1.435-1.796-1.297-.855.138-1.435.942-1.297 1.796M89.416 52.346c.138.854.942 1.435 1.797 1.297.854-.139 1.435-.942 1.297-1.797-.139-.854-.942-1.435-1.797-1.296-.854.138-1.435.942-1.297 1.796" transform="translate(40.287 1.628) matrix(-1 0 0 1 300.683 .623)"/>
                    <path fill="#FF83D6" d="M88.526 57.243c.113-.026.217-.07.334-.088 2.775-.449 5.388 1.437 5.836 4.212.428 2.651-1.285 5.132-3.858 5.74-.916-2.716-1.627-5.648-2.125-8.729l-.187-1.135M110.863 59.062c.448 2.775 3.061 4.66 5.836 4.213 2.774-.449 4.66-3.062 4.213-5.837-.45-2.774-3.062-4.66-5.837-4.212-2.774.448-4.66 3.061-4.212 5.836M99.248 49.751l-3.795 7.89c-.448.934.238 2.014 1.274 2.003l4.72-.05-2.199-9.843z" transform="translate(40.287 1.628) matrix(-1 0 0 1 300.683 .623)"/>
                    <path fill="#FFF" d="M96.228 66.599c.35 2.164 3.653 3.43 7.378 2.829 3.725-.602 6.461-2.844 6.112-5.008-.35-2.164-3.157-.052-6.882.55-3.725.601-6.957-.535-6.608 1.629M133.89 59.763c.086.535.59.9 1.126.812.536-.086.9-.59.813-1.125-.087-.536-.59-.9-1.127-.814-.534.087-.899.591-.812 1.127" transform="translate(40.287 1.628) matrix(-1 0 0 1 300.683 .623)"/>
                    <path fill="#4D0037" d="M139.908 58.512c-11.126 1.12-14.235 1.934-18.074-2.074-3.838-4.008.441-16.434-5.73-20.536-6.172-4.101-8.805-1.112-15.55-5.119-7.872-4.675-11.868 3.149-11.868 3.149s2.468-7.559 16.352-8.377c13.885-.817 27.566 3.154 32.709 13.092 1.686 3.258 1.373 6.181 3.372 9.451 4.974 8.136-1.211 10.414-1.211 10.414" transform="translate(40.287 1.628) matrix(-1 0 0 1 300.683 .623)"/>
                    <path fill="#E63888" d="M166.67 122.081s-11.746 23.006-38.63 23.49c-26.882.485-27.124-18.647-27.124-18.647S80.088 140.002 76.94 154.29c-3.148 14.288-4.844 57.151-4.844 57.151l7.992 27.85 3.875 20.101c6.9.099 20.09-6.287 22.04-11.625 0 0 27.366 3.875 52.554-.243 25.187-4.116 34.632-9.928 34.632-9.928s-4.844-12.35-6.055-22.28c0 0 10.657-27.123 9.204-55.457-1.454-28.333-19.981-34.872-29.668-37.778" transform="translate(40.287 1.628) matrix(-1 0 0 1 300.683 .623)"/>
                    <path fill="#D0327B" d="M72.15 210.137c2.301-2.406 5.127-7.794 7.696-19.522 5.57-25.428 17.921-31.24 17.921-31.24s0 3.874-1.694 6.054c-1.696 2.18-8.961 8.96-7.75 21.069 1.21 12.108 10.413 16.952 10.413 16.952l6.772 45.33c-3.081 5.1-15.076 10.704-21.545 10.61l-3.875-20.1-7.992-27.849s.018-.465.054-1.304M168.486 164.46s-2.906 40.685-15.5 53.278l-24.945 17.436c2.987-.162 9.768-28.496 6.297-30.271.726-.485 8.718.484 19.375-8.96 10.656-9.445 14.773-31.483 14.773-31.483M164.611 241.228c5.57-3.632 16.954-10.413 22.523-25.912 1.211 9.93 6.055 22.28 6.055 22.28s-9.445 5.812-34.632 9.928c-4.22.69-8.499 1.154-12.7 1.451 6.743-2.359 15.506-5.629 18.754-7.747" transform="translate(40.287 1.628) matrix(-1 0 0 1 300.683 .623)"/>
                    <path fill="url(#4vqmdn4mhh)" d="M2.455 228.757c-3.597 8.023-2.18 12.471-2.18 12.471s27.126 12.593 68.297 7.75c41.172-4.844 38.508-8.96 53.281-9.203 14.773-.242 33.664 0 38.023-2.18 4.36-2.179-6.7-1.937-6.7-1.937s10.09.404 10.333-1.937c.242-2.341-10.01-1.21-10.01-1.21s11.14.887 11.383-1.535c.241-2.421-8.72-1.614-11.545-1.937 0 0 9.284.242 10.414-.726 1.13-.97.162-2.745-2.018-2.745-2.18 0-12.028-.808-17.114-1.776-5.087-.969-10.657-2.906-10.415-3.955.242-1.05 13.442-1.494 13.562-3.552.122-2.059-2.905-3.027-14.894-2.422-11.987.606-25.308 7.023-43.35 8.234-18.044 1.21-59.337 6.417-77.622-4.36 0 0-4.723.485-9.445 11.02z" transform="translate(40.287 1.628) matrix(-1 0 0 1 300.683 .623) matrix(-1 0 0 1 164.886 0)"/>
                    <path fill="#620046" d="M145.478 53.668c-11.175.408-18.794 6.087-22.37 1.842-3.574-4.244 3.16-20.725-2.736-25.211-5.897-4.486-10.991 2.796-18.003-.727-7.497-3.766-11.355.91-11.355.91s.207-10.82 14.116-10.75c13.908.071 30.496 8.794 34.994 19.04 4.499 10.245 5.354 14.896 5.354 14.896" transform="translate(40.287 1.628) matrix(-1 0 0 1 300.683 .623)"/>
                </g>
                <g>
                    <path fill="url(#ccm41tw35i)" d="M173.544 86.963v.244c-.004.883-.02 3.105-.048 6.666-.026 3.27-2.685 5.907-5.955 5.907h-12.9c-3.29 0-5.955-2.666-5.955-5.955v-.067c.04-3.626.063-5.84.065-6.645v-.15c0-14.338-4.846-27.541-12.988-38.054l17.344-18.01c12.751 15.138 20.437 34.701 20.437 56.064z" transform="translate(40.287 1.628) translate(212.951 51.822)"/>
                    <path fill="url(#6ndiz0q5tj)" d="M153.108 30.9l-17.345 18.009c-9.21-11.893-22.637-20.342-38.032-23.094l3.643-24.589c20.636 3.505 38.793 14.31 51.734 29.674z" transform="translate(40.287 1.628) translate(212.951 51.822)"/>
                    <path fill="url(#wtfv24q58k)" d="M86.772 0c4.976 0 9.855.42 14.602 1.226L97.73 25.814c-3.557-.636-7.219-.968-10.958-.968-14.617 0-28.052 5.071-38.65 13.554l-13.29-21.106C49.313 6.432 67.292 0 86.772 0z" transform="translate(40.287 1.628) translate(212.951 51.822)"/>
                    <path fill="url(#b1r1b6jtzl)" d="M34.831 17.294L48.121 38.4c-14.219 11.382-23.33 28.906-23.33 48.563l.001.07v.172c.005.872.026 3.057.066 6.553.037 3.289-2.6 5.985-5.888 6.022H6.003c-3.27 0-5.929-2.637-5.955-5.907C.02 90.444.005 88.257 0 87.311L0 86.963c0-28.506 13.686-53.81 34.831-69.669z" transform="translate(40.287 1.628) translate(212.951 51.822)"/>
                </g>
                <path fill="url(#w55wpn4q7m)" d="M238.03 44.311c1.031-1.03 1.718-2.404 2.061-4.121l.074.339c.363 1.56 1.026 2.82 1.987 3.782.962.962 2.223 1.624 3.783 1.988l.34.073c-1.718.343-3.092 1.03-4.123 2.06-1.03 1.031-1.717 2.405-2.06 4.122l-.074-.339c-.363-1.56-1.026-2.82-1.987-3.782-.962-.962-2.223-1.624-3.783-1.988l-.34-.073c1.718-.343 3.092-1.03 4.123-2.06z" transform="translate(40.287 1.628)"/>
                <path fill="url(#q75g8s638n)" d="M338.604 202.992c1.752-1.752 2.92-4.087 3.504-7.007l.092.434c.61 2.718 1.747 4.909 3.411 6.573 1.664 1.664 3.856 2.801 6.574 3.411l.433.092c-2.92.584-5.255 1.752-7.007 3.503-1.752 1.752-2.92 4.088-3.503 7.007l-.092-.433c-.61-2.718-1.748-4.91-3.412-6.574-1.664-1.664-3.855-2.8-6.574-3.41l-.433-.093c2.92-.584 5.255-1.752 7.007-3.503zM375.813 22.58c1.752-1.752 2.92-4.088 3.504-7.007l.092.433c.61 2.718 1.747 4.91 3.411 6.573 1.665 1.664 3.856 2.802 6.574 3.412l.434.092c-2.92.584-5.256 1.751-7.008 3.503-1.751 1.752-2.92 4.087-3.503 7.007l-.092-.434c-.61-2.718-1.747-4.909-3.412-6.573-1.664-1.664-3.855-2.801-6.573-3.411l-.434-.092c2.92-.584 5.256-1.752 7.007-3.504z" transform="translate(40.287 1.628)"/>
                <g>
                    <path fill="#132149" d="M216.54 240.502c-7.427 13.238-15.5 20.342-30.354 20.019-14.854-.323-47.146-7.103-47.146-7.103l2.906-9.687 74.594-3.23z" transform="translate(40.287 1.628) matrix(-1 0 0 1 335.255 .623)"/>
                    <path fill="#84C2EA" d="M77.848 155.742c8.172 15.833 36.57 65.386 40.445 84.517 3.875 19.132.242 19.132.242 19.132s-20.586 5.57-37.054-39.474c-16.47-45.043-27.045-59.977-27.53-69.18-.483-9.201 7.263-30.005 9.689-27.445 2.905 3.067-3.069 14.53-3.069 14.53s5.006-17.275 10.011-16.145c5.005 1.13-3.067 9.526-4.682 19.697 0 0 3.552-14.53 7.75-13.239 4.198 1.292-1.292 8.072-.969 13.723.323 5.65 2.583 8.88 5.167 13.884" transform="translate(40.287 1.628) matrix(-1 0 0 1 335.255 .623)"/>
                    <g transform="translate(40.287 1.628) matrix(-1 0 0 1 335.255 .623) matrix(-1 0 0 1 88.504 135.497)">
                        <ellipse cx="33.731" cy="77.729" fill="#00668E" filter="url(#q664rxjoko)" opacity=".274" rx="31.253" ry="16.829" transform="rotate(-47 33.731 77.729)"/>
                        <ellipse cx="60.999" cy="30.651" fill="url(#0clfm22wep)" filter="url(#qqv01o6bvq)" opacity=".274" rx="21.855" ry="15.299" transform="rotate(-47 60.999 30.65)"/>
                        <g transform="scale(-1 1) rotate(-45 0 189.442)">
                            <use fill="url(#etssu52ppr)" xlink:href="#7rqegw4rbs"/>
                            <use fill="#000" filter="url(#cxkejbjf6t)" xlink:href="#7rqegw4rbs"/>
                        </g>
                        <path fill="url(#0letghbxxu)" d="M24.524 17.629h14.802l-.001 29.702-22.278 3.714.001-25.941c.001-4.128 3.348-7.475 7.476-7.475z" transform="rotate(45 28.187 34.336)"/>
                        <g transform="scale(-1 1) rotate(-45 0 158.83)">
                            <use fill="url(#9qpw1o0suv)" xlink:href="#4rm0bos23w"/>
                            <use fill="#000" filter="url(#t4xxsx9llx)" xlink:href="#4rm0bos23w"/>
                        </g>
                        <path fill="url(#6wf7wg97qy)" d="M34.683 43.737c1.753-2.927 4.784-4.854 8.178-5.198l6.357-.646-.646 6.356c-.326 3.215-2.073 6.105-4.745 7.89l-.454.287-21.659 12.969 12.97-21.658z"/>
                        <ellipse cx="59.901" cy="27.608" fill="url(#a21oyjgqlz)" rx="7.426" ry="7.425" transform="matrix(-1 0 0 1 119.803 0)"/>
                        <path fill="url(#nxzik9ayhA)" d="M.669 87.813l1.992-.162c10.052-.897 16.382-2.65 18.992-5.26 4.167-4.167 4.061-11.028-.236-15.324-4.297-4.297-11.158-4.403-15.325-.236-2.778 2.778-4.586 9.772-5.423 20.982z"/>
                    </g>
                    <path fill="#1D2D5B" d="M121.603 38.371c-8.72-9.364-1.192-26.511 4.434-29.474 4.194-2.21 9.885-.255 12.242-3.531 4.547-6.319 17.157-7.634 23.625-.813 8.33 8.785 14.69 6.666 22.702 2.85 8.61-4.1 14.995-9.423 31.228-.084 16.234 9.34 22.086 9.15 28.34 2.083 6.255-7.068 24.577-8.013 35.558 7.602 10.98 15.616 12.746 25.383 24.008 25.299 11.263-.085 23.384-2.137 28.816 10.287 5.433 12.424-8.315 27.761-19.74 23.376-11.426-4.385-10.65 11.377-10.559 20.727.09 9.35-12.994 18.78-25.666 8.481-12.673-10.299-17.416-7.284-24.872-1.455-7.457 5.829-19.704.971-24.096-5.658-4.391-6.628-10.401-12.82-20.934-10.675-10.533 2.144-14.598 4.455-23.161-3.48-8.563-7.934-11.124-7.129-17.978-6.149-6.854.98-16.797-7.567-16.797-7.567l-27.15-31.819z" transform="translate(40.287 1.628) matrix(-1 0 0 1 335.255 .623)"/>
                    <path fill="#132149" d="M139.021 52.63l2.478-9.13 30.984 10.167c18.9-1.16 21.516 2.533 31.18 9.187 9.665 6.654 12.84-6.47 25.425-6.158 12.584.311 11.101 11.127 21.52 14.569 10.42 3.44 11.08-7.848 23.923-2.282 12.128 5.255 10.234 15.117 27.7 21.17-.042 2.3.007 4.563.027 6.54.089 9.35-12.995 18.78-25.667 8.481-12.673-10.299-17.416-7.284-24.872-1.455-7.457 5.829-19.705.971-24.096-5.657-4.391-6.629-10.401-12.821-20.934-10.677-10.533 2.145-14.598 4.456-23.161-3.478-8.563-7.935-10.534-7.52-17.388-6.54-6.854.98-17.077-5.813-17.077-5.813L139.02 52.63z" transform="translate(40.287 1.628) matrix(-1 0 0 1 335.255 .623)"/>
                    <path fill="#2280B6" d="M154.872 53.465c1.023 6.333 6.987 10.637 13.32 9.615 6.334-1.023 10.638-6.987 9.615-13.32-1.023-6.333-6.987-10.637-13.32-9.614-6.333 1.023-10.638 6.986-9.615 13.32" transform="translate(40.287 1.628) matrix(-1 0 0 1 335.255 .623)"/>
                    <path fill="#CC361B" d="M160.296 52.589c.54 3.337 3.683 5.605 7.02 5.066 3.337-.539 5.606-3.681 5.067-7.018-.54-3.338-3.682-5.606-7.02-5.067-3.337.539-5.606 3.682-5.067 7.019" transform="translate(40.287 1.628) matrix(-1 0 0 1 335.255 .623)"/>
                    <path fill="#84C2EA" d="M158.076 155.216c-11.438 2.38-21.594 5.918-27.559 8.216-2.32-5.55-2.885-11.265-3.888-17.255-.558-3.335 4.62-15.378 11.28-20.827 2.178-1.78 5.77-4.804 5.821-8.896.099-7.99-3.884-50.282-3.884-50.282l33.072-7.185s3.167 41.93 5.722 48.307c2.339 5.836 15.336 12.85 28.05 16.967-4.763 10.653-5.743 16.983-2.038 28.073-15.504-6.896-32.022-.148-46.576 2.882" transform="translate(40.287 1.628) matrix(-1 0 0 1 335.255 .623)"/>
                    <path fill="#2280B6" d="M156.278 89.134c-2.847 1.288-11.367 3.359-14.117 2.948-1.427-13.242-2.315-25.91-2.315-25.91l26.9-5.804c2.105 13.255-2.083 24.974-10.468 28.766" transform="translate(40.287 1.628) matrix(-1 0 0 1 335.255 .623)"/>
                    <path fill="#84C2EA" d="M123.285 58.378c2.611 16.162 10.999 28.3 24.954 26.045 11.879-1.918 20.164-16.618 18.365-32.89-1.796-16.245-10.033-28.514-26.538-25.892-23.706 3.765-19.392 16.575-16.78 32.737" transform="translate(40.287 1.628) matrix(-1 0 0 1 335.255 .623)"/>
                    <path fill="#000" d="M144.92 49.276c.139.855.943 1.435 1.797 1.297.854-.138 1.435-.942 1.297-1.796-.139-.854-.942-1.435-1.797-1.297-.854.138-1.435.942-1.296 1.796M123.988 52.346c.138.854.942 1.435 1.797 1.297.854-.139 1.435-.942 1.296-1.797-.138-.854-.942-1.435-1.796-1.296-.854.138-1.435.942-1.297 1.796" transform="translate(40.287 1.628) matrix(-1 0 0 1 335.255 .623)"/>
                    <path fill="#2280B6" d="M123.098 57.243c.113-.026.217-.07.333-.088 2.775-.449 5.389 1.437 5.836 4.212.429 2.651-1.284 5.132-3.857 5.74-.916-2.716-1.627-5.648-2.125-8.729l-.187-1.135M145.434 59.062c.449 2.775 3.062 4.66 5.836 4.213 2.775-.449 4.662-3.062 4.213-5.837-.448-2.774-3.061-4.66-5.836-4.212-2.775.448-4.66 3.061-4.213 5.836M133.82 49.751l-3.795 7.89c-.448.934.238 2.014 1.274 2.003l4.72-.05-2.2-9.843zM130.8 66.599c.35 2.164 3.653 3.43 7.378 2.829 3.725-.602 6.46-2.844 6.111-5.008-.35-2.164-3.156-.052-6.881.55-3.725.601-6.957-.535-6.608 1.629" transform="translate(40.287 1.628) matrix(-1 0 0 1 335.255 .623)"/>
                    <path fill="#FFF" d="M168.462 59.763c.086.535.59.9 1.126.812.535-.086.9-.59.813-1.125-.087-.536-.59-.9-1.127-.814-.535.087-.899.591-.812 1.127" transform="translate(40.287 1.628) matrix(-1 0 0 1 335.255 .623)"/>
                    <path fill="#132149" d="M174.48 58.512c-11.126 1.12-14.235 1.934-18.074-2.074-3.838-4.008.441-16.434-5.73-20.536-6.172-4.101-8.805-1.112-15.55-5.119-7.872-4.675-11.868 3.149-11.868 3.149s2.468-7.559 16.352-8.377c13.885-.817 27.566 3.154 32.709 13.092 1.686 3.258 1.372 6.181 3.372 9.451 4.974 8.136-1.211 10.414-1.211 10.414" transform="translate(40.287 1.628) matrix(-1 0 0 1 335.255 .623)"/>
                    <path fill="#1F3569" d="M201.242 122.081s-11.746 23.006-38.63 23.49c-26.882.485-27.124-18.647-27.124-18.647s-20.828 13.078-23.976 27.366c-3.149 14.288-4.844 57.151-4.844 57.151l7.992 27.85 3.875 20.101c6.9.099 20.09-6.287 22.04-11.625 0 0 27.366 3.875 52.553-.243 25.188-4.116 34.633-9.928 34.633-9.928s-4.844-12.35-6.055-22.28c0 0 10.657-27.123 9.203-55.457-1.453-28.333-19.98-34.872-29.667-37.778" transform="translate(40.287 1.628) matrix(-1 0 0 1 335.255 .623)"/>
                    <path fill="#132149" d="M106.722 210.137c2.3-2.406 5.127-7.794 7.695-19.522 5.571-25.428 17.922-31.24 17.922-31.24s0 3.874-1.694 6.054c-1.696 2.18-8.961 8.96-7.75 21.069 1.21 12.108 10.413 16.952 10.413 16.952l6.772 45.33c-3.082 5.1-15.077 10.704-21.545 10.61l-3.875-20.1-7.992-27.849s.018-.465.054-1.304M203.058 164.46s-2.906 40.685-15.5 53.278l-24.945 17.436c2.987-.162 9.768-28.496 6.297-30.271.726-.485 8.718.484 19.375-8.96 10.656-9.445 14.773-31.483 14.773-31.483M199.183 241.228c5.57-3.632 16.953-10.413 22.523-25.912 1.211 9.93 6.055 22.28 6.055 22.28s-9.445 5.812-34.633 9.928c-4.218.69-8.498 1.154-12.7 1.451 6.743-2.359 15.507-5.629 18.755-7.747" transform="translate(40.287 1.628) matrix(-1 0 0 1 335.255 .623)"/>
                    <path fill="#84C2EA" d="M197.003 228.757c3.597 8.023 2.18 12.471 2.18 12.471s-27.125 12.593-68.297 7.75c-41.171-4.844-38.507-8.96-53.28-9.203-14.774-.242-33.664 0-38.024-2.18-4.359-2.179 6.7-1.937 6.7-1.937s-10.09.404-10.333-1.937c-.242-2.341 10.01-1.21 10.01-1.21s-11.14.887-11.382-1.535c-.242-2.421 8.719-1.614 11.544-1.937 0 0-9.284.242-10.414-.726-1.13-.97-.161-2.745 2.018-2.745 2.18 0 12.029-.808 17.115-1.776 5.086-.969 10.656-2.906 10.414-3.955-.242-1.05-13.442-1.494-13.562-3.552-.122-2.059 2.906-3.027 14.894-2.422 11.988.606 25.309 7.023 43.351 8.234 18.043 1.21 59.336 6.417 77.62-4.36 0 0 4.724.485 9.446 11.02z" transform="translate(40.287 1.628) matrix(-1 0 0 1 335.255 .623)"/>
                    <path fill="#1D2D5B" d="M180.05 53.668c-11.175.408-18.794 6.087-22.37 1.842-3.574-4.244 3.16-20.725-2.737-25.211-5.896-4.486-10.99 2.796-18.002-.727-7.497-3.766-11.356.91-11.356.91s.208-10.82 14.117-10.75c13.908.071 30.496 8.794 34.994 19.04 4.499 10.245 5.354 14.896 5.354 14.896" transform="translate(40.287 1.628) matrix(-1 0 0 1 335.255 .623)"/>
                </g>
            </g>
        </g>
    </g>
</svg>
